# Blender 3.1.2
# www.blender.org
o Cube
v -0.049969 -0.006571 1.108942
v 0.065162 -0.006406 1.109192
v -0.811578 0.104284 0.389187
v -0.087463 -0.169527 -2.000502
v -0.237323 -0.102921 -1.667431
v -0.500243 -0.033736 -1.353292
v -0.766349 0.040237 -1.034786
v -0.922024 0.097735 -0.680578
v -0.959656 0.130261 -0.111216
v -0.501638 0.045366 0.786041
v 0.535079 0.048788 0.789246
v 0.851437 0.110968 0.391944
v 1.044361 0.147352 -0.113145
v 1.041530 0.120816 -0.697898
v 0.856553 0.054063 -1.052905
v 0.557208 -0.028481 -1.364281
v 0.324593 -0.099214 -1.679985
v 0.005045 -0.045028 1.109007
v -0.007316 -0.243861 -2.342270
v 0.016828 -0.014361 0.763341
v 0.019957 0.000014 0.417785
v 0.036113 0.004167 -0.105962
v 0.054153 -0.018514 -0.623942
v 0.046332 -0.049201 -0.963382
v 0.029151 -0.088372 -1.308172
v 0.044169 -0.138032 -1.653279
v 0.021507 -0.198562 -1.997587
v 0.016828 0.055525 0.762486
v 0.019957 0.071461 0.416911
v 0.036113 0.076277 -0.106844
v 0.054153 0.052228 -0.624807
v 0.046332 0.019532 -0.964222
v 0.029151 -0.022573 -1.308977
v 0.044169 -0.076047 -1.654037
v 0.021507 -0.141305 -1.998287
v 0.005045 0.031419 1.108169
v 0.130334 -0.168999 -2.003846
v 0.003934 -0.204745 2.272731
v 0.050795 -0.174840 2.273655
v -0.038957 -0.174884 2.273141
v 0.003934 -0.145147 2.272099
v 0.062115 -0.040924 1.436431
v 0.057333 -0.096776 1.836799
v -0.047633 -0.041064 1.436107
v -0.043968 -0.096876 1.836384
v 0.004439 -0.063384 1.835435
v 0.004809 -0.004825 1.435251
v 0.004809 -0.077698 1.436046
v 0.004440 -0.130649 1.836161
vn -0.5604 0.8142 0.1518
vn 0.2214 0.9293 -0.2956
vn -0.2583 -0.9548 0.1471
vn -0.5704 -0.8162 -0.0919
vn -0.1162 -0.9923 -0.0423
vn -0.1240 -0.9922 -0.0117
vn -0.1257 -0.9913 0.0390
vn -0.1209 -0.9915 0.0486
vn -0.1169 -0.9889 0.0921
vn -0.1119 -0.9867 0.1177
vn -0.1293 -0.9823 0.1357
vn -0.2577 -0.9486 0.1837
vn 0.5300 0.8445 0.0770
vn 0.0106 0.9989 0.0462
vn -0.0472 0.9989 0.0077
vn -0.0705 0.9963 -0.0487
vn -0.0725 0.9964 -0.0449
vn -0.0527 0.9941 -0.0945
vn -0.0016 0.9926 -0.1212
vn 0.0676 0.9864 -0.1499
vn 0.2324 0.9527 -0.1959
vn -0.0816 0.9696 -0.2306
vn -0.0024 0.9762 -0.2170
vn 0.0417 0.9803 -0.1928
vn 0.0539 0.9891 -0.1369
vn 0.0496 0.9973 -0.0537
vn 0.0543 0.9975 -0.0444
vn 0.0539 0.9979 0.0358
vn 0.0352 0.9922 0.1198
vn -0.0114 0.9846 0.1743
vn 0.1476 -0.9814 0.1230
vn 0.1252 -0.9838 0.1282
vn 0.1392 -0.9821 0.1266
vn 0.1469 -0.9832 0.1084
vn 0.1428 -0.9888 0.0442
vn 0.1408 -0.9889 0.0482
vn 0.1405 -0.9899 -0.0177
vn 0.1305 -0.9901 -0.0510
vn 0.1207 -0.9927 0.0060
vn 0.2663 -0.9583 0.1037
vn -0.2372 0.9362 -0.2593
vn -0.0265 0.0106 0.9996
vn 0.0169 0.0106 0.9998
vn -0.5671 -0.8119 -0.1385
vn 0.5248 0.8365 0.1573
vn 0.5346 -0.8333 -0.1408
vn 0.5386 -0.8384 -0.0834
vn 0.5369 -0.8364 -0.1102
vn 0.5293 0.8433 0.0939
vn 0.5275 0.8406 0.1236
vn -0.5709 -0.8169 -0.0820
vn -0.5694 -0.8149 -0.1084
vn -0.5650 0.8201 0.0905
vn -0.5631 0.8177 0.1191
vn -0.5607 0.8140 0.1518
vn -0.1144 -0.9934 0.0003
vn -0.1225 -0.9911 -0.0515
vn -0.1255 -0.9920 -0.0143
vn -0.1236 -0.9867 0.1058
vn -0.1196 -0.9844 0.1287
vn -0.1123 -0.9860 0.1232
vn -0.1294 -0.9819 0.1381
vn 0.0037 0.9845 0.1753
vn -0.0435 0.9918 0.1206
vn -0.0700 0.9965 0.0451
vn -0.0792 0.9864 -0.1442
vn -0.0634 0.9781 -0.1983
vn -0.0111 0.9775 -0.2108
vn 0.0575 0.9683 -0.2431
vn -0.2441 0.9556 -0.1651
vn -0.0865 0.9839 -0.1562
vn -0.0108 0.9926 -0.1207
vn 0.0337 0.9948 -0.0966
vn 0.0391 0.9992 0.0104
vn -0.0175 0.9988 0.0459
vn -0.5675 0.8225 0.0380
vn 0.2672 -0.9519 0.1498
vn 0.1494 -0.9778 0.1472
vn 0.1232 -0.9867 0.1060
vn 0.1353 -0.9871 0.0861
vn 0.1322 -0.9912 -0.0038
vn 0.1228 -0.9916 -0.0401
vn 0.5398 -0.8399 -0.0561
vn -0.5668 -0.8122 -0.1385
vn 0.5243 0.8369 0.1573
vn 0.5351 -0.8330 -0.1408
vn 0.5388 -0.8383 -0.0834
vn 0.5373 -0.8362 -0.1102
vn 0.5290 0.8434 0.0938
vn 0.5271 0.8408 0.1235
vn -0.5708 -0.8170 -0.0820
vn -0.5691 -0.8151 -0.1084
vn -0.5652 0.8200 0.0905
vn -0.5633 0.8176 0.1192
s 0
f 45//1 41//1 46//1
f 35//2 37//2 19//2
f 27//3 4//3 19//3
f 1//4 20//4 18//4
f 10//5 21//5 20//5
f 3//6 22//6 21//6
f 22//7 9//7 23//7
f 23//8 9//8 8//8
f 23//9 7//9 24//9
f 24//10 6//10 25//10
f 25//11 5//11 26//11
f 26//12 4//12 27//12
f 2//13 28//13 36//13
f 11//14 29//14 28//14
f 12//15 30//15 29//15
f 30//16 13//16 31//16
f 31//17 13//17 14//17
f 31//18 15//18 32//18
f 32//19 16//19 33//19
f 33//20 17//20 34//20
f 34//21 37//21 35//21
f 34//22 4//22 5//22
f 33//23 5//23 6//23
f 32//24 6//24 7//24
f 31//25 7//25 8//25
f 9//26 31//26 8//26
f 9//27 30//27 31//27
f 3//28 30//28 9//28
f 10//29 29//29 3//29
f 1//30 28//30 10//30
f 26//31 37//31 17//31
f 25//32 17//32 16//32
f 24//33 16//33 15//33
f 23//34 15//34 14//34
f 13//35 23//35 14//35
f 13//36 22//36 23//36
f 12//37 22//37 13//37
f 11//38 21//38 12//38
f 2//39 20//39 11//39
f 37//40 27//40 19//40
f 4//41 35//41 19//41
f 41//42 38//42 39//42
f 40//43 38//43 41//43
f 49//44 40//44 45//44
f 43//45 41//45 39//45
f 49//46 39//46 38//46
f 18//47 42//47 48//47
f 48//48 43//48 49//48
f 2//49 47//49 42//49
f 42//50 46//50 43//50
f 18//51 44//51 1//51
f 48//52 45//52 44//52
f 1//53 47//53 36//53
f 44//54 46//54 47//54
f 45//55 40//55 41//55
f 1//56 10//56 20//56
f 10//57 3//57 21//57
f 3//58 9//58 22//58
f 23//59 8//59 7//59
f 24//60 7//60 6//60
f 25//61 6//61 5//61
f 26//62 5//62 4//62
f 2//63 11//63 28//63
f 11//64 12//64 29//64
f 12//65 13//65 30//65
f 31//66 14//66 15//66
f 32//67 15//67 16//67
f 33//68 16//68 17//68
f 34//69 17//69 37//69
f 34//70 35//70 4//70
f 33//71 34//71 5//71
f 32//72 33//72 6//72
f 31//73 32//73 7//73
f 3//74 29//74 30//74
f 10//75 28//75 29//75
f 1//76 36//76 28//76
f 26//77 27//77 37//77
f 25//78 26//78 17//78
f 24//79 25//79 16//79
f 23//80 24//80 15//80
f 12//81 21//81 22//81
f 11//82 20//82 21//82
f 2//83 18//83 20//83
f 49//84 38//84 40//84
f 43//85 46//85 41//85
f 49//86 43//86 39//86
f 18//87 2//87 42//87
f 48//88 42//88 43//88
f 2//89 36//89 47//89
f 42//90 47//90 46//90
f 18//91 48//91 44//91
f 48//92 49//92 45//92
f 1//93 44//93 47//93
f 44//94 45//94 46//94
